<mxfile host="65bd71144e">
    <diagram id="5xRKwvw85gtK5LQ0fWkA" name="Page-1">
        <mxGraphModel dx="1118" dy="710" grid="1" gridSize="10" guides="1" tooltips="1" connect="1" arrows="1" fold="1" page="1" pageScale="1" pageWidth="850" pageHeight="1100" math="0" shadow="0">
            <root>
                <mxCell id="0"/>
                <mxCell id="1" parent="0"/>
                <mxCell id="11" style="edgeStyle=none;html=1;entryX=0.499;entryY=0.144;entryDx=0;entryDy=0;entryPerimeter=0;" parent="1" source="2" target="8" edge="1">
                    <mxGeometry relative="1" as="geometry"/>
                </mxCell>
                <mxCell id="2" value="Begin" style="strokeWidth=2;html=1;shape=mxgraph.flowchart.terminator;whiteSpace=wrap;" parent="1" vertex="1">
                    <mxGeometry x="350" y="90" width="180" height="60" as="geometry"/>
                </mxCell>
                <mxCell id="3" value="End" style="strokeWidth=2;html=1;shape=mxgraph.flowchart.terminator;whiteSpace=wrap;" parent="1" vertex="1">
                    <mxGeometry x="345" y="630" width="180" height="60" as="geometry"/>
                </mxCell>
                <mxCell id="13" style="edgeStyle=none;html=1;entryX=0.5;entryY=0;entryDx=0;entryDy=0;entryPerimeter=0;" parent="1" source="6" target="9" edge="1">
                    <mxGeometry relative="1" as="geometry">
                        <Array as="points">
                            <mxPoint x="230" y="400"/>
                        </Array>
                    </mxGeometry>
                </mxCell>
                <mxCell id="14" style="edgeStyle=none;html=1;entryX=0.588;entryY=-0.006;entryDx=0;entryDy=0;entryPerimeter=0;" parent="1" source="6" target="10" edge="1">
                    <mxGeometry relative="1" as="geometry">
                        <mxPoint x="660" y="470" as="targetPoint"/>
                        <Array as="points">
                            <mxPoint x="658" y="400"/>
                        </Array>
                    </mxGeometry>
                </mxCell>
                <mxCell id="6" value="Score &amp;gt;= 50" style="strokeWidth=2;html=1;shape=mxgraph.flowchart.decision;whiteSpace=wrap;" parent="1" vertex="1">
                    <mxGeometry x="390" y="350" width="100" height="100" as="geometry"/>
                </mxCell>
                <mxCell id="12" style="edgeStyle=none;html=1;entryX=0.5;entryY=0;entryDx=0;entryDy=0;entryPerimeter=0;" parent="1" source="8" target="6" edge="1">
                    <mxGeometry relative="1" as="geometry"/>
                </mxCell>
                <mxCell id="8" value="Score" style="html=1;strokeWidth=2;shape=manualInput;whiteSpace=wrap;rounded=1;size=26;arcSize=11;" parent="1" vertex="1">
                    <mxGeometry x="365" y="200" width="150" height="90" as="geometry"/>
                </mxCell>
                <mxCell id="23" style="edgeStyle=orthogonalEdgeStyle;html=1;" parent="1" source="9" edge="1">
                    <mxGeometry relative="1" as="geometry">
                        <mxPoint x="440" y="630" as="targetPoint"/>
                        <Array as="points">
                            <mxPoint x="230" y="600"/>
                            <mxPoint x="440" y="600"/>
                        </Array>
                    </mxGeometry>
                </mxCell>
                <mxCell id="9" value="print('Pass')" style="strokeWidth=2;html=1;shape=mxgraph.flowchart.display;whiteSpace=wrap;" parent="1" vertex="1">
                    <mxGeometry x="150" y="480" width="160" height="80" as="geometry"/>
                </mxCell>
                <mxCell id="22" value="" style="edgeStyle=orthogonalEdgeStyle;html=1;entryX=0.528;entryY=0;entryDx=0;entryDy=0;entryPerimeter=0;exitX=0.599;exitY=1.014;exitDx=0;exitDy=0;exitPerimeter=0;" parent="1" source="10" target="3" edge="1">
                    <mxGeometry relative="1" as="geometry">
                        <mxPoint x="645" y="640" as="targetPoint"/>
                        <Array as="points">
                            <mxPoint x="660" y="600"/>
                            <mxPoint x="440" y="600"/>
                        </Array>
                    </mxGeometry>
                </mxCell>
                <mxCell id="10" value="print('Fail')" style="strokeWidth=2;html=1;shape=mxgraph.flowchart.display;whiteSpace=wrap;" parent="1" vertex="1">
                    <mxGeometry x="570" y="480" width="150" height="80" as="geometry"/>
                </mxCell>
                <mxCell id="17" value="True" style="text;html=1;align=center;verticalAlign=middle;resizable=0;points=[];autosize=1;strokeColor=none;fillColor=none;" parent="1" vertex="1">
                    <mxGeometry x="340" y="370" width="40" height="20" as="geometry"/>
                </mxCell>
                <mxCell id="18" value="False" style="text;html=1;align=center;verticalAlign=middle;resizable=0;points=[];autosize=1;strokeColor=none;fillColor=none;" parent="1" vertex="1">
                    <mxGeometry x="490" y="370" width="40" height="20" as="geometry"/>
                </mxCell>
            </root>
        </mxGraphModel>
    </diagram>
</mxfile>